<svg xmlns="http://www.w3.org/2000/svg" width="1374.583" height="1353.439" viewBox="0 0 1374.583 1353.439">
  <g id="Group_9" data-name="Group 9" transform="translate(1918.06 -1588.629)">
    <g id="Group_8" data-name="Group 8" transform="translate(-810 151)">
      <g id="Group_7" data-name="Group 7" transform="translate(948 1525)">
        <g id="Union_1" data-name="Union 1" transform="translate(-1536.236 12.648) rotate(-13)">
          <path d="M 667.2776489257812 759.265625 C 662.8604736328125 759.265625 658.55419921875 758.333251953125 654.4783935546875 756.4944458007812 C 650.2550048828125 754.5889892578125 646.4644775390625 751.7880859375 643.2122192382812 748.1696166992188 L 255.4942016601562 316.8097229003906 L 255.1112060546875 316.3837280273438 L 254.7408447265625 316.8207092285156 C 254.3482055664062 317.2840881347656 253.9540252685547 317.75537109375 253.5693054199219 318.2213745117188 C 247.5654754638672 325.4941711425781 242.244384765625 333.4039916992188 237.7539367675781 341.7311706542969 C 233.3433837890625 349.9109191894531 229.6810302734375 358.5891723632812 226.8684844970703 367.5250854492188 C 224.0855712890625 376.3669128417969 222.103759765625 385.5591735839844 220.9783020019531 394.8463745117188 C 219.8552093505859 404.1130981445312 219.5751190185547 413.5655517578125 220.1458435058594 422.9412536621094 C 220.7212066650391 432.3853454589844 222.1646575927734 441.8441772460938 224.4362945556641 451.0548095703125 C 226.7445678710938 460.4146423339844 229.9331207275391 469.6265563964844 233.9133911132812 478.4344482421875 C 237.8408660888672 487.1270446777344 242.5916595458984 495.541015625 248.0413360595703 503.4580688476562 C 234.1988525390625 502.3538208007812 220.4908752441406 499.9615783691406 207.2796630859375 496.3438110351562 C 193.6102905273438 492.6004638671875 180.3501129150391 487.5090942382812 167.8672943115234 481.211181640625 C 155.1559295654297 474.7975463867188 143.1226654052734 467.0661926269531 132.1015777587891 458.2319030761719 C 120.7909317016602 449.1659851074219 110.4035720825195 438.8240051269531 101.2281188964844 427.4931640625 C 90.77957153320312 414.5899047851562 81.94184112548828 400.4625549316406 74.96047973632812 385.5033569335938 C 68.1717529296875 370.957275390625 63.08611679077148 355.5185546875 59.84493637084961 339.6159973144531 C 56.66275405883789 323.9997253417969 55.24411773681641 307.8669128417969 55.62838745117188 291.6658020019531 C 56.00408172607422 275.82470703125 58.10432434082031 259.8732299804688 61.87194442749023 244.24072265625 C 74.41992950439453 253.9975738525391 88.606689453125 261.4295654296875 104.0497512817383 266.334716796875 C 111.7023010253906 268.7659912109375 119.6660232543945 270.563720703125 127.7197494506836 271.6779174804688 C 134.3789367675781 272.5996398925781 141.2068481445312 273.06689453125 148.0138397216797 273.06689453125 C 149.3956604003906 273.06689453125 150.7957458496094 273.0474548339844 152.1751098632812 273.0090026855469 C 160.408935546875 272.7787170410156 168.7165679931641 271.8637084960938 176.8673858642578 270.2893676757812 C 185.1165771484375 268.6961669921875 193.3198394775391 266.406005859375 201.2492065429688 263.4823608398438 C 202.5872955322266 262.9892578125 203.9400329589844 262.4696350097656 205.2699279785156 261.9378967285156 L 205.9349365234375 261.6719970703125 L 205.4562072753906 261.1393737792969 L 178.8959350585938 231.5894470214844 C 175.6398468017578 227.9666290283203 173.1184844970703 223.7418975830078 171.4020233154297 219.0325469970703 C 169.7429351806641 214.4805450439453 168.9016571044922 209.6700897216797 168.9016571044922 204.7348175048828 C 168.9016571044922 199.7995452880859 169.7429351806641 194.9890899658203 171.4020233154297 190.4372711181641 C 173.1184844970703 185.7279968261719 175.6398468017578 181.5034484863281 178.8958435058594 177.8809051513672 C 182.1482086181641 174.262451171875 185.9387512207031 171.4615478515625 190.1622924804688 169.5560913085938 C 194.2381134033203 167.7172698974609 198.5443878173828 166.784912109375 202.9617462158203 166.784912109375 C 207.3790283203125 166.784912109375 211.685302734375 167.7172698974609 215.7611236572266 169.5560913085938 C 219.9846649169922 171.4615478515625 223.7752075195312 174.262451171875 227.0274810791016 177.8809051513672 L 264.7322998046875 219.8298187255859 L 265.1038513183594 220.2430877685547 L 265.4757385253906 219.8300933837891 C 271.3983764648438 213.2528076171875 276.7976684570312 206.1489105224609 281.5233764648438 198.7156372070312 C 290.5058288574219 184.5868072509766 297.0882873535156 169.3026275634766 301.0878295898438 153.2877197265625 C 303.0538330078125 145.4144439697266 304.3806762695312 137.3706359863281 305.0314025878906 129.3795471191406 C 305.6851196289062 121.3648147583008 305.6690368652344 113.2893600463867 304.9833984375 105.3774490356445 C 303.600830078125 89.42812347412109 299.549560546875 74.13052368164062 292.9408874511719 59.89760971069336 C 293.8351135253906 59.88712310791016 294.7347412109375 59.88181304931641 295.6246643066406 59.88181304931641 C 310.4838562011719 59.88181304931641 325.3015747070312 61.33990478515625 339.6661987304688 64.21572113037109 C 355.2635803222656 67.33744812011719 370.4228515625 72.14717864990234 384.7231140136719 78.51108551025391 C 399.2818298339844 84.98981475830078 413.0296630859375 93.11727142333984 425.58447265625 102.6676330566406 C 438.4888305664062 112.4856338500977 450.2357482910156 123.8893585205078 460.4987487792969 136.5620880126953 C 471.7041931152344 150.4007263183594 481.040283203125 165.6219024658203 488.2477416992188 181.8028106689453 C 495.2468566894531 197.5164489746094 500.2684936523438 214.1962738037109 503.1731262207031 231.37890625 C 506.026123046875 248.2636260986328 506.8390197753906 265.6390075683594 505.5892944335938 283.0222778320312 C 504.3677673339844 300.0048217773438 501.1805114746094 316.975830078125 496.1130065917969 333.4840393066406 C 493.9612731933594 330.4203491210938 491.6817016601562 327.4000244140625 489.3270263671875 324.4934387207031 C 482.6654663085938 316.2654418945312 475.2056579589844 308.6850891113281 467.1549377441406 301.9630737304688 C 459.3119201660156 295.4156188964844 450.8167419433594 289.607177734375 441.9053955078125 284.6990966796875 C 433.1540222167969 279.8787231445312 423.9155578613281 275.8784484863281 414.4466552734375 272.8093566894531 C 405.0663757324219 269.767822265625 395.3749389648438 267.6115417480469 385.6415710449219 266.400634765625 C 379.3823852539062 265.6225280761719 373.0148315429688 265.2279968261719 366.7158508300781 265.2279968261719 C 363.2611999511719 265.2279968261719 359.7749328613281 265.3472595214844 356.3540344238281 265.5826416015625 C 346.5579223632812 266.2572631835938 336.832763671875 267.8994445800781 327.4483947753906 270.4635314941406 C 323.2028503417969 271.6236267089844 318.9556579589844 272.9949035644531 314.8249206542969 274.5392761230469 L 314.1377563476562 274.7962646484375 L 314.6281127929688 275.3419189453125 L 691.3438720703125 694.4610595703125 C 694.5999145507812 698.0836181640625 697.1212158203125 702.3082885742188 698.837646484375 707.0174560546875 C 700.4967651367188 711.5693359375 701.3380126953125 716.3798217773438 701.3380126953125 721.3150634765625 C 701.3380126953125 726.2503662109375 700.4967651367188 731.060791015625 698.837646484375 735.61279296875 C 697.1212158203125 740.3220825195312 694.5999145507812 744.546875 691.3438720703125 748.1696166992188 C 688.09130859375 751.7880859375 684.3005981445312 754.5889892578125 680.0770263671875 756.4944458007812 C 676.001220703125 758.333251953125 671.69482421875 759.265625 667.2776489257812 759.265625 Z" stroke="none"/>
          <path d="M 667.2776489257812 758.765625 C 671.6234741210938 758.765625 675.8606567382812 757.8482055664062 679.8714599609375 756.0386352539062 C 684.0313110351562 754.1619262695312 687.76611328125 751.4019775390625 690.9720458984375 747.83544921875 C 694.1851196289062 744.2604370117188 696.6734619140625 740.0905151367188 698.367919921875 735.4415283203125 C 700.0069580078125 730.9446411132812 700.8380126953125 726.1917114257812 700.8380126953125 721.3150634765625 C 700.8380126953125 716.4383544921875 700.0069580078125 711.685546875 698.367919921875 707.188720703125 C 696.6734619140625 702.539794921875 694.1851196289062 698.3700561523438 690.9720458984375 694.7952880859375 L 314.2562866210938 275.6760864257812 L 313.275390625 274.5848083496094 L 314.6498413085938 274.0709838867188 C 318.7946472167969 272.5212707519531 323.0564880371094 271.145263671875 327.316650390625 269.9812622070312 C 336.7327575683594 267.408447265625 346.4907531738281 265.7607116699219 356.3196716308594 265.0838012695312 C 359.7525634765625 264.8477172851562 363.2503051757812 264.7279968261719 366.7158508300781 264.7279968261719 C 373.0353088378906 264.7279968261719 379.423583984375 265.1238098144531 385.7033081054688 265.9044494628906 C 395.468017578125 267.1192626953125 405.1905822753906 269.2824401855469 414.600830078125 272.3337097167969 C 424.099853515625 275.4125366210938 433.3675842285156 279.4254455566406 442.1466674804688 284.2611694335938 C 451.0859375 289.1846313476562 459.6077575683594 295.0112609863281 467.4754028320312 301.5792541503906 C 475.5509338378906 308.3220825195312 483.0336608886719 315.9257202148438 489.7154846191406 324.1787109375 C 491.8631591796875 326.8297729492188 493.9487609863281 329.5754089355469 495.9320678710938 332.362060546875 C 500.8161010742188 316.1970825195312 503.8957824707031 299.5970764160156 505.090576171875 282.9863586425781 C 506.3374938964844 265.6429138183594 505.5264892578125 248.3076324462891 502.6801147460938 231.4621734619141 C 499.782470703125 214.3209991455078 494.7730102539062 197.6815338134766 487.791015625 182.0062713623047 C 480.6012878417969 165.8652648925781 471.2881164550781 150.6814575195312 460.1101989746094 136.8768157958984 C 449.8722839355469 124.2350845336914 438.154296875 112.8593597412109 425.28173828125 103.0656356811523 C 412.7576599121094 93.53854370117188 399.0433044433594 85.430908203125 384.5198364257812 78.96790313720703 C 370.2532043457031 72.61890411376953 355.1293029785156 67.82054138183594 339.568115234375 64.70599365234375 C 325.2357482910156 61.83672332763672 310.4510192871094 60.38181304931641 295.6246643066406 60.38181304931641 C 294.9917297363281 60.38181304931641 294.3544921875 60.38450241088867 293.7182922363281 60.38983535766602 C 300.1602172851562 74.47599029541016 304.1166687011719 89.58899688720703 305.4815673828125 105.3342666625977 C 306.1695556640625 113.2739944458008 306.1857604980469 121.3777236938477 305.5297546386719 129.4201812744141 C 304.8767395019531 137.4382629394531 303.5455627441406 145.5092620849609 301.5729370117188 153.4088134765625 C 297.5603942871094 169.4759979248047 290.9566650390625 184.8096313476562 281.9454040527344 198.9839019775391 C 277.2046508789062 206.4405364990234 271.7884826660156 213.5668182373047 265.8472900390625 220.1647186279297 L 265.1035766601562 220.99072265625 L 264.3604736328125 220.1640014648438 L 226.6556549072266 178.215087890625 C 223.4500274658203 174.6485443115234 219.7153930664062 171.8886260986328 215.5555725097656 170.0119018554688 C 211.5448455810547 168.2023620605469 207.3076629638672 167.284912109375 202.9617462158203 167.284912109375 C 198.6158447265625 167.284912109375 194.378662109375 168.2023620605469 190.3679351806641 170.0119018554688 C 186.2080230712891 171.8886260986328 182.473388671875 174.6485443115234 179.2677459716797 178.215087890625 C 176.0546569824219 181.7899017333984 173.5662994384766 185.9596252441406 171.8718414306641 190.6084442138672 C 170.2327575683594 195.1053619384766 169.4016571044922 199.8580932617188 169.4016571044922 204.7348175048828 C 169.4016571044922 209.6115417480469 170.2327575683594 214.3643646240234 171.8718414306641 218.8613586425781 C 173.5662994384766 223.5102691650391 176.0546569824219 227.6802673339844 179.2677459716797 231.2552642822266 L 205.8280181884766 260.80517578125 L 206.7855682373047 261.8704528808594 L 205.45556640625 262.4021911621094 C 204.1214752197266 262.935546875 202.7643890380859 263.4568176269531 201.422119140625 263.9515380859375 C 193.4674835205078 266.8844604492188 185.2379302978516 269.1820068359375 176.9622039794922 270.7802734375 C 168.7848510742188 272.3597106933594 160.4499359130859 273.2777099609375 152.1891174316406 273.5088195800781 C 150.8064727783203 273.54736328125 149.4016571044922 273.56689453125 148.0138397216797 273.56689453125 C 141.1839294433594 273.56689453125 134.3329315185547 273.0979919433594 127.6512985229492 272.1731872558594 C 119.5694808959961 271.0550842285156 111.5778427124023 269.2510986328125 103.8983917236328 266.811279296875 C 88.64973449707031 261.9679260253906 74.62132263183594 254.6696929931641 62.17819976806641 245.1094207763672 C 58.5318603515625 260.4668579101562 56.49707794189453 276.1259155273438 56.12829971313477 291.677734375 C 55.74484252929688 307.8413696289062 57.16020584106445 323.9365539550781 60.33484268188477 339.5160827636719 C 63.56820678710938 355.3801879882812 68.6414794921875 370.7813720703125 75.41357421875 385.2919006347656 C 82.37766265869141 400.2141723632812 91.19375610351562 414.3069152832031 101.6167526245117 427.1785278320312 C 110.769660949707 438.4816284179688 121.131477355957 448.7981872558594 132.4142913818359 457.8417358398438 C 143.4082946777344 466.6543579101562 155.4122009277344 474.3667297363281 168.0925750732422 480.7647094726562 C 180.545654296875 487.0476379394531 193.7744750976562 492.1269836425781 207.4116668701172 495.8616333007812 C 220.2604217529297 499.380126953125 233.580078125 501.7367553710938 247.0363311767578 502.8739013671875 C 241.8175659179688 495.1862487792969 237.2543487548828 487.0433044433594 233.4577484130859 478.6403503417969 C 229.4650268554688 469.8047180175781 226.2663879394531 460.5639038085938 223.9508361816406 451.1745300292969 C 221.6720275878906 441.9346313476562 220.2239379882812 432.44580078125 219.6467590332031 422.9716186523438 C 219.0742034912109 413.5658264160156 219.3552093505859 404.0828247070312 220.48193359375 394.7862548828125 C 221.6111145019531 385.4685363769531 223.5993957519531 376.24609375 226.3914794921875 367.3749084472656 C 229.2135772705078 358.4089965820312 232.8883056640625 349.7013549804688 237.3138427734375 341.493896484375 C 241.8197479248047 333.1380920410156 247.1592102050781 325.2009887695312 253.1836547851562 317.903076171875 C 253.5698394775391 317.4353637695312 253.9653930664062 316.9624633789062 254.3593902587891 316.4975280761719 L 255.1001129150391 315.6233520507812 L 255.8660278320312 316.4755554199219 L 643.5840454101562 747.83544921875 C 646.7897338867188 751.4019775390625 650.5242919921875 754.1619262695312 654.6840209960938 756.0386352539062 C 658.6947631835938 757.8482055664062 662.9318237304688 758.765625 667.2776489257812 758.765625 M 667.2776489257812 759.765625 C 658.4330444335938 759.765625 649.5885009765625 756.01171875 642.8402709960938 748.50390625 L 255.1222991943359 317.1439819335938 C 254.7300262451172 317.6069030761719 254.3407592773438 318.072265625 253.9548492431641 318.5397338867188 C 247.9724731445312 325.7865295410156 242.6697540283203 333.6687316894531 238.1940307617188 341.9685363769531 C 233.7993011474609 350.118896484375 230.1489410400391 358.7679138183594 227.3453826904297 367.6751708984375 C 224.5707550048828 376.49072265625 222.5961151123047 385.6527099609375 221.4746551513672 394.9065551757812 C 220.3551177978516 404.1440734863281 220.0761108398438 413.5662536621094 220.6449279785156 422.9109191894531 C 221.2182006835938 432.3213500976562 222.6563873291016 441.7497253417969 224.9217529296875 450.9350891113281 C 227.2221221923828 460.2627258300781 230.4000244140625 469.4454650878906 234.3690185546875 478.2285461425781 C 238.4280242919922 487.2122802734375 243.3681182861328 495.8955383300781 249.0515747070312 504.0378112792969 C 234.8162994384766 502.9695434570312 220.7178497314453 500.5421752929688 207.1475677490234 496.8260803222656 C 193.4432983398438 493.0730895996094 180.1521148681641 487.9691772460938 167.6421203613281 481.6575317382812 C 154.9008483886719 475.2288208007812 142.8381195068359 467.4789123535156 131.7888488769531 458.6220092773438 C 120.4514770507812 449.5347290039062 110.0384826660156 439.1676330566406 100.8395690917969 427.8078002929688 C 90.36538696289062 414.8729858398438 81.50584411621094 400.7106323242188 74.50738525390625 385.7148132324219 C 67.70156860351562 371.132080078125 62.60402679443359 355.6566467285156 59.35502624511719 339.7158203125 C 56.16539001464844 324.06298828125 54.74338912963867 307.8918151855469 55.12857055664062 291.6539916992188 C 55.51111602783203 275.5206298828125 57.67829895019531 259.275634765625 61.56902694702148 243.3690032958984 C 74.21765899658203 253.322998046875 88.56002807617188 260.8901672363281 104.2011184692383 265.8581848144531 C 111.8241195678711 268.2800903320312 119.7602996826172 270.0719909667969 127.7882995605469 271.1826171875 C 134.4386291503906 272.1030883789062 141.2239685058594 272.5669250488281 148.0138092041016 272.5669250488281 C 149.3965148925781 272.5669250488281 150.7792053222656 272.5476989746094 152.1612091064453 272.5091857910156 C 160.3655700683594 272.2797241210938 168.646484375 271.3679809570312 176.7725677490234 269.7984619140625 C 184.9932098388672 268.2108154296875 193.1697540283203 265.9284362792969 201.0762023925781 263.0132751464844 C 202.4192962646484 262.5182800292969 203.7559356689453 262.0047302246094 205.0843048095703 261.4736328125 L 178.5240325927734 231.9237213134766 C 165.0275726318359 216.9071807861328 165.0275726318359 192.5621795654297 178.5240325927734 177.546630859375 C 185.2722015380859 170.038818359375 194.1169586181641 166.284912109375 202.9617004394531 166.284912109375 C 211.8064575195312 166.284912109375 220.6512145996094 170.038818359375 227.3993835449219 177.546630859375 L 265.1042175292969 219.4955444335938 C 271.0215759277344 212.9240875244141 276.36865234375 205.8916320800781 281.1014709472656 198.4473571777344 C 290.0555725097656 184.3631744384766 296.6165771484375 169.1279907226562 300.6027526855469 153.1665344238281 C 302.5611267089844 145.3238983154297 303.8841247558594 137.3076324462891 304.5330200195312 129.3389892578125 C 305.1845703125 121.3515396118164 305.1683959960938 113.3037261962891 304.4852905273438 105.4206314086914 C 303.0849304199219 89.26654052734375 298.937744140625 73.78562927246094 292.1598510742188 59.40808486938477 C 293.3149108886719 59.39054870605469 294.4702758789062 59.38178634643555 295.6246643066406 59.38178634643555 C 310.5259399414062 59.38178634643555 325.3572998046875 60.84116744995117 339.764404296875 63.72544860839844 C 355.3992004394531 66.85472106933594 370.5939331054688 71.67599487304688 384.9263916015625 78.05426788330078 C 399.5225830078125 84.54962921142578 413.3033752441406 92.697265625 425.88720703125 102.2697219848633 C 438.8238525390625 112.112174987793 450.5993957519531 123.5439071655273 460.8872985839844 136.2474517822266 C 472.1202087402344 150.1199951171875 481.4793090820312 165.3786315917969 488.7044677734375 181.599365234375 C 495.720947265625 197.3519897460938 500.7545776367188 214.0721740722656 503.6661071777344 231.2955474853516 C 506.525390625 248.2172698974609 507.3408508300781 265.6322631835938 506.0880126953125 283.0580749511719 C 504.8397521972656 300.4118957519531 501.5430297851562 317.7558288574219 496.2888488769531 334.6074523925781 L 496.2879333496094 334.6092834472656 L 496.2870178222656 334.6074523925781 C 493.975830078125 331.2720031738281 491.5034790039062 327.974365234375 488.9384765625 324.8081665039062 C 482.2938537597656 316.60107421875 474.856201171875 309.0447082519531 466.83447265625 302.3468933105469 C 459.0162048339844 295.8200988769531 450.5472106933594 290.029541015625 441.6642150878906 285.1370849609375 C 432.9422912597656 280.3329162597656 423.7334899902344 276.3450012207031 414.29248046875 273.2850036621094 C 404.9414672851562 270.2528991699219 395.2809448242188 268.1037292480469 385.579833984375 266.8968200683594 C 379.3177185058594 266.1183166503906 373.0049133300781 265.7279968261719 366.7158203125 265.7279968261719 C 363.2620849609375 265.7279968261719 359.8157958984375 265.8456726074219 356.3883056640625 266.0814514160156 C 346.6269226074219 266.7537231445312 336.9348449707031 268.389892578125 327.5802001953125 270.9458923339844 C 323.3286743164062 272.1075439453125 319.1276550292969 273.46435546875 315.0000305175781 275.0076293945312 L 691.7157592773438 694.1268310546875 C 705.2120971679688 709.1424560546875 705.2120971679688 733.4874267578125 691.7157592773438 748.50390625 C 684.967041015625 756.01171875 676.122314453125 759.765625 667.2776489257812 759.765625 Z" stroke="none" fill="#707070"/>
        </g>
        <g id="Group_3" data-name="Group 3" transform="translate(-1111 -711)">
          <g id="Group_2" data-name="Group 2">
            <path id="Path_4" data-name="Path 4" d="M-457.5,992.5l489,176-103,599-386,209-390-209-97-599Z" stroke="#707070" stroke-width="1"/>
            <path id="Path_5" data-name="Path 5" d="M-457.5,1061.5l411,150-84,509-327,170-327-170-90-509Z" fill="#fff" stroke="#707070" stroke-width="1"/>
          </g>
          <g id="Group_1" data-name="Group 1" transform="translate(-435 1185)" style="isolation: isolate">
            <path id="Path_2" data-name="Path 2" d="M490,69,210,671h90l57-112H622l27,57,26,55h90Z" transform="translate(-509 -161)"/>
            <path id="Path_3" data-name="Path 3" d="M488,281l94,194H396Z" transform="translate(-509 -161)" fill="#fff"/>
          </g>
        </g>
        <path id="Intersection_1" data-name="Intersection 1" d="M832.614,551.152a212.491,212.491,0,0,1-41.9-5.893A204.026,204.026,0,0,1,660.069,444.89l184.359,66.354a158.979,158.979,0,0,0,10.528,15.664,161.133,161.133,0,0,0,20.112,21.845,222.991,222.991,0,0,1-33.7,2.576Q836.979,551.328,832.614,551.152Z" transform="translate(-2055.251 -101.009)" fill="#fff" stroke="#707070" stroke-width="1"/>
      </g>
    </g>
  </g>
</svg>
