<?xml version="1.0" encoding="utf-8"?>
<!-- Generator: Adobe Illustrator 23.0.1, SVG Export Plug-In . SVG Version: 6.00 Build 0)  -->
<svg version="1.1" id="Layer_1" xmlns="http://www.w3.org/2000/svg" xmlns:xlink="http://www.w3.org/1999/xlink" x="0px" y="0px"
	 viewBox="0 0 1080 1080" style="enable-background:new 0 0 1080 1080;" xml:space="preserve">
<style type="text/css">
	.st0{fill:none;}
	.st1{fill:#231F20;}
	.st2{fill:#D32027;}
	.st3{clip-path:url(#SVGID_2_);}
	.st4{fill:none;stroke:#D32027;stroke-width:500;stroke-miterlimit:10;}
	.st5{fill:none;stroke:#D32027;stroke-width:500;stroke-miterlimit:10;stroke-dasharray:1.0102,2.5256;}
	.st6{fill:#A6120D;}
	.st7{fill:#DD1B16;}
	.st8{fill:#FFFFFF;}
	.st9{fill:#EAEAEA;}
	.st10{fill:#B3B3B3;}
	.st11{clip-path:url(#SVGID_4_);fill:url(#SVGID_5_);}
	.st12{clip-path:url(#SVGID_7_);fill:url(#SVGID_8_);}
	.st13{fill:#A67C52;}
	.st14{opacity:0.3;fill:none;stroke:#F2F2F2;stroke-width:7;stroke-linecap:round;stroke-linejoin:round;stroke-miterlimit:10;}
	.st15{fill:#333333;}
	.st16{fill:#CCCCCC;}
	.st17{fill:#E0E0E0;}
	.st18{fill:#99795E;}
	.st19{fill:#A59081;}
	.st20{fill:#6B5B53;}
	.st21{fill:#877469;}
	.st22{fill:#2B2B2B;}
	.st23{opacity:0.3;}
	.st24{fill:#F2F2F2;}
	.st25{fill:#77655A;}
</style>
<pattern  x="-46.3" width="100" height="100" patternUnits="userSpaceOnUse" id="New_Pattern_Swatch_2" viewBox="176.8 -276.8 100 100" style="overflow:visible;">
	<g>
		<rect x="176.8" y="-276.8" class="st0" width="100" height="100"/>
		<rect x="176.8" y="-276.8" class="st1" width="100" height="50"/>
		<rect x="176.8" y="-276.8" class="st2" width="100" height="100"/>
		<rect x="176.8" y="-226.8" class="st1" width="50" height="50"/>
		<rect x="226.8" y="-276.8" class="st1" width="50" height="50"/>
		<g>
			<defs>
				<rect id="SVGID_1_" x="176.8" y="-276.8" width="100" height="100"/>
			</defs>
			<clipPath id="SVGID_2_">
				<use xlink:href="#SVGID_1_"  style="overflow:visible;"/>
			</clipPath>
			<g class="st3">
				<line class="st4" x1="176.8" y1="-276.8" x2="177.1" y2="-276.4"/>
				<line class="st5" x1="178.9" y1="-274.6" x2="275.5" y2="-178"/>
				<line class="st4" x1="276.4" y1="-177.1" x2="276.8" y2="-176.8"/>
			</g>
		</g>
		<rect x="176.8" y="-276.8" class="st1" width="50" height="50"/>
	</g>
</pattern>
<path class="st6" d="M1020.5,201.9L538.9,37.7v1008.4l403.6-223.4L1020.5,201.9L1020.5,201.9z"/>
<path class="st7" d="M69.8,204.9l71.7,620.8l397.4,220.4V37.7L69.8,204.9L69.8,204.9z"/>
<path class="st8" d="M117,235.7l64.6,559.1l357.9,198.5V85.1L117,235.7L117,235.7z"/>
<polygon class="st9" points="539.5,993.2 903,792.1 973.2,233 973.3,233 539.5,85.1 "/>
<path class="st10" d="M4184.2,145l-363.8,128l57.5,476.7l306.7,168.6l308.3-170.9l57.5-476.7L4184.2,145z"/>
<path class="st10" d="M3232.8,145l-363.8,128l57.5,476.7l306.7,168.6l308.3-170.9l57.5-476.7L3232.8,145z"/>
<g>
	<defs>
		<polygon id="SVGID_3_" points="4183.8,186.1 4183.8,185.8 4183.3,186 4182.9,185.8 4182.9,186.1 3861.7,300.6 3861.7,300.6 
			3911,727 4182.9,877.8 4182.9,878.3 4183.3,878 4183.8,878.3 4183.8,877.8 4460,724.9 4513.6,298.6 4513.6,298.6 		"/>
	</defs>
	<clipPath id="SVGID_4_">
		<use xlink:href="#SVGID_3_"  style="overflow:visible;"/>
	</clipPath>
	<pattern  id="SVGID_5_" xlink:href="#New_Pattern_Swatch_2" patternTransform="matrix(1.1784 0 0 1.1784 1248.1344 1339.2004)">
	</pattern>
	<rect x="3716.3" y="186.3" class="st11" width="942.7" height="687"/>
</g>
<g>
	<defs>
		<polygon id="SVGID_6_" points="2347.9,148.4 2347.9,148 2347.3,148.2 2346.8,148 2346.8,148.4 1988.1,276.2 1988.1,276.2 
			2043.1,752.3 2346.8,920.7 2346.8,921.3 2347.3,921 2347.9,921.3 2347.9,920.7 2656.3,750 2716.1,274 2716.1,274 		"/>
	</defs>
	<clipPath id="SVGID_7_">
		<use xlink:href="#SVGID_6_"  style="overflow:visible;"/>
	</clipPath>
	<pattern  id="SVGID_8_" xlink:href="#New_Pattern_Swatch_2" patternTransform="matrix(1.3159 0 0 1.3159 2064.7146 2263.3984)">
	</pattern>
	<rect x="1825.7" y="148.5" class="st12" width="1052.7" height="767.2"/>
</g>
<g>
	<path class="st13" d="M4355,623.8c-15.3-9-43.3-20.5-118.6-95.8L4060,351.6c-0.9-0.9-2.3-0.9-3.2,0l-27.2,27.2
		c-0.9,0.9-0.9,2.3,0,3.2l245.5,245.5c0.2,0.2,0.5,0.4,0.8,0.5c9.4,9.3,26.5,27.6,28.2,39.1c2.3,16,19.8,36.5,34.2,12.9
		C4352.7,656.5,4370.3,632.8,4355,623.8z"/>
	<path class="st14" d="M4040.8,380l253.1,253c0,0,26.3,25.2,24.2,44.3"/>
	<path class="st15" d="M3953.6,438.1c0,0,20.3-0.2,59.3-19.7c42.3-21.2,81.4-66.2,81.4-66.2l23.6,23.6l23.6,23.6
		c0,0-45,39-66.2,81.4c-19.5,39.1-19.7,59.3-19.7,59.3c-38,0-66.9-35-66.9-35S3953.6,476.1,3953.6,438.1z"/>
	<path class="st16" d="M3953.6,438.1c0,0,5.3-0.1,15.6-2.7c0,0-3.1,22.2,31.9,57.2c35,35,57.2,31.9,57.2,31.9
		c-2.6,10.3-2.7,15.6-2.7,15.6c-38,0-66.9-35-66.9-35S3953.6,476.1,3953.6,438.1z"/>
	<path class="st14" d="M4068.2,393.9c0,0-53.8,41.8-104.4,52.9c0,0-1.5,20.4,30.8,48.9"/>
</g>
<g>
	<path class="st13" d="M4022.3,623.8c15.3-9,43.3-20.5,118.6-95.8l176.3-176.3c0.9-0.9,2.3-0.9,3.2,0l27.2,27.2
		c0.9,0.9,0.9,2.3,0,3.2l-245.5,245.5c-0.2,0.2-0.5,0.4-0.8,0.5c-9.4,9.3-26.5,27.6-28.2,39.1c-2.3,16-19.8,36.5-34.2,12.9
		C4024.6,656.5,4007,632.8,4022.3,623.8z"/>
	<path class="st14" d="M4336.5,380l-253.1,253c0,0-26.3,25.2-24.2,44.3"/>
	<path class="st15" d="M4423.7,438.1c0,0-20.3-0.2-59.3-19.7c-42.3-21.2-81.4-66.2-81.4-66.2l-23.6,23.6l-23.6,23.6
		c0,0,45,39,66.2,81.4c19.5,39.1,19.7,59.3,19.7,59.3c38,0,66.9-35,66.9-35S4423.7,476.1,4423.7,438.1z"/>
	<path class="st16" d="M4423.7,438.1c0,0-5.3-0.1-15.6-2.7c0,0,3.1,22.2-31.9,57.2c-35,35-57.2,31.9-57.2,31.9
		c2.6,10.3,2.7,15.6,2.7,15.6c38,0,66.9-35,66.9-35S4423.7,476.1,4423.7,438.1z"/>
	<path class="st14" d="M4309.1,393.9c0,0,53.8,41.8,104.4,52.9c0,0,1.5,20.4-30.8,48.9"/>
</g>
<path class="st17" d="M2678.5,301.3l-330.7-112.8v692.5L2625,727.7L2678.5,301.3L2678.5,301.3z"/>
<path class="st8" d="M2025.6,303.4l49.3,426.3l272.9,151.4V188.5L2025.6,303.4L2025.6,303.4z"/>
<g>
	<path class="st13" d="M2514.1,626.8c-15.3-9-43.3-20.5-118.6-95.8l-176.3-176.3c-0.9-0.9-2.3-0.9-3.2,0l-27.2,27.2
		c-0.9,0.9-0.9,2.3,0,3.2l245.5,245.5c0.2,0.2,0.5,0.4,0.8,0.5c9.4,9.3,26.5,27.6,28.2,39.1c2.3,16,19.8,36.5,34.2,12.9
		C2511.8,659.5,2529.4,635.8,2514.1,626.8z"/>
	<path class="st14" d="M2199.9,383L2453,636c0,0,26.3,25.2,24.2,44.3"/>
	<path class="st15" d="M2112.7,441.1c0,0,20.3-0.2,59.3-19.7c42.3-21.2,81.4-66.2,81.4-66.2l23.6,23.6l23.6,23.6
		c0,0-45,39-66.2,81.4c-19.5,39.1-19.7,59.3-19.7,59.3c-38,0-66.9-35-66.9-35S2112.7,479.1,2112.7,441.1z"/>
	<path class="st16" d="M2112.7,441.1c0,0,5.3-0.1,15.6-2.7c0,0-3.1,22.2,31.9,57.2c35,35,57.2,31.9,57.2,31.9
		c-2.6,10.3-2.7,15.6-2.7,15.6c-38,0-66.9-35-66.9-35S2112.7,479.1,2112.7,441.1z"/>
	<path class="st14" d="M2227.4,396.9c0,0-53.8,41.8-104.4,52.9c0,0-1.5,20.4,30.8,48.9"/>
</g>
<g>
	<path class="st13" d="M2181.5,626.8c15.3-9,43.3-20.5,118.6-95.8l176.3-176.3c0.9-0.9,2.3-0.9,3.2,0l27.2,27.2
		c0.9,0.9,0.9,2.3,0,3.2l-245.5,245.5c-0.2,0.2-0.5,0.4-0.8,0.5c-9.4,9.3-26.5,27.6-28.2,39.1c-2.3,16-19.8,36.5-34.2,12.9
		C2183.8,659.5,2166.2,635.8,2181.5,626.8z"/>
	<path class="st14" d="M2495.7,383l-253.1,253c0,0-26.3,25.2-24.2,44.3"/>
	<path class="st15" d="M2582.9,441.1c0,0-20.3-0.2-59.3-19.7c-42.3-21.2-81.4-66.2-81.4-66.2l-23.6,23.6l-23.6,23.6
		c0,0,45,39,66.2,81.4c19.5,39.1,19.7,59.3,19.7,59.3c38,0,66.9-35,66.9-35S2582.9,479.1,2582.9,441.1z"/>
	<path class="st16" d="M2582.9,441.1c0,0-5.3-0.1-15.6-2.7c0,0,3.1,22.2-31.9,57.2c-35,35-57.2,31.9-57.2,31.9
		c2.6,10.3,2.7,15.6,2.7,15.6c38,0,66.9-35,66.9-35S2582.9,479.1,2582.9,441.1z"/>
	<path class="st14" d="M2468.2,396.9c0,0,53.8,41.8,104.4,52.9c0,0,1.5,20.4-30.8,48.9"/>
</g>
<path class="st18" d="M382.9,692.3c-0.4,0.4-38.3,37.2-35.4,63.6c0.3,2.5-1.5,4.8-4.1,5.1c-0.2,0-0.3,0-0.5,0
	c-2.3,0-4.3-1.7-4.6-4.1c-3.4-30.8,36.4-69.5,38.1-71.1l163.1-163.1v-65.8L467,529.4C352.6,643.8,310,661.3,286.7,675
	c-23.2,13.7,3.5,49.7,25.4,85.5c22,35.8,48.5,4.6,52-19.6c2.5-17.6,28.6-45.4,42.8-59.4c0.4-0.2,0.8-0.4,1.2-0.8l131.4-131.4v-13.7
	L382.9,692.3z"/>
<path class="st19" d="M338.3,756.9c0.3,2.3,2.2,4.1,4.6,4.1c0.2,0,0.3,0,0.5,0c2.5-0.3,4.3-2.5,4.1-5.1c-2.9-26.4,35-63.1,35.4-63.6
	l156.7-156.7v-13L376.4,685.8C374.7,687.4,334.9,726.1,338.3,756.9z"/>
<path class="st20" d="M781.3,302.8l-41.4-41.4c-1.3-1.3-3.5-1.3-4.8,0L539.5,456.9v65.8L761,301.2c1.8-1.8,4.7-1.8,6.5,0
	c1.8,1.8,1.8,4.7,0,6.5l-228,228v13.7l241.7-241.7C782.6,306.3,782.6,304.1,781.3,302.8z"/>
<path class="st21" d="M767.5,307.7c1.8-1.8,1.8-4.7,0-6.5c-1.8-1.8-4.7-1.8-6.5,0L539.5,522.7v13L767.5,307.7z"/>
<g>
	<path class="st22" d="M896.8,392.8c0,0-30.8-0.3-90.2-30C742.3,330.6,683,262.3,683,262.3l-35.8,35.8l-35.8,35.8
		c0,0,68.4,59.3,100.6,123.7c29.7,59.4,30,90.2,30,90.2c57.8,0,101.8-53.2,101.8-53.2S896.8,450.6,896.8,392.8z"/>
</g>
<g>
	<path class="st16" d="M896.8,392.8c0,0-8-0.1-23.7-4.1c0,0,4.7,33.7-48.5,86.9c-53.2,53.2-86.9,48.5-86.9,48.5
		c4,15.7,4.1,23.7,4.1,23.7c57.8,0,101.8-53.2,101.8-53.2S896.8,450.6,896.8,392.8z"/>
</g>
<g class="st23">
	<path class="st24" d="M834.4,484.8c-1.3,0-2.5-0.5-3.4-1.6c-1.7-1.9-1.5-4.8,0.4-6.5c37.3-32.9,43.9-58.5,45-67.2
		c-75.7-18-153.3-77.8-156.7-80.4c-2-1.6-2.4-4.4-0.8-6.4c1.6-2,4.4-2.4,6.4-0.8c0.8,0.6,81.9,63.1,156.8,79.5
		c2,0.4,3.4,2.1,3.6,4.2c0.1,1.4,1.8,33.8-48.3,78.1C836.6,484.5,835.5,484.8,834.4,484.8z"/>
</g>
<path class="st25" d="M792.3,675c-23.3-13.7-65.9-31.2-180.3-145.6l-72.5-72.5v65.8l163.1,163.1c1.6,1.6,41.5,40.2,38.1,71.1
	c-0.3,2.3-2.2,4.1-4.6,4.1c-0.2,0-0.3,0-0.5,0c-2.5-0.3-4.3-2.5-4.1-5.1c2.9-26.4-35-63.1-35.4-63.5L539.5,535.7v13.7l131.4,131.4
	c0.3,0.3,0.8,0.6,1.2,0.8c14.2,14.1,40.3,41.9,42.8,59.4c3.5,24.3,30.1,55.5,52,19.6C788.9,724.7,815.6,688.8,792.3,675z"/>
<path class="st21" d="M696.2,692.4c0.4,0.4,38.3,37.1,35.4,63.5c-0.3,2.5,1.5,4.8,4.1,5.1c0.2,0,0.3,0,0.5,0c2.3,0,4.3-1.7,4.6-4.1
	c3.4-30.8-36.4-69.5-38.1-71.1L539.5,522.7v13L696.2,692.4z"/>
<path class="st18" d="M311.5,307.7c-1.8-1.8-1.8-4.7,0-6.5c1.8-1.8,4.7-1.8,6.5,0l221.5,221.5v-65.8L344,261.4
	c-1.3-1.3-3.5-1.3-4.8,0l-41.4,41.4c-1.3,1.3-1.3,3.5,0,4.8l241.7,241.7v-13.7L311.5,307.7z"/>
<path class="st19" d="M311.5,301.2c-1.8,1.8-1.8,4.7,0,6.5l228,228v-13L318,301.2C316.2,299.4,313.3,299.4,311.5,301.2z"/>
<g>
	<path class="st15" d="M182.2,392.8c0,0,30.8-0.3,90.2-30c64.3-32.2,123.7-100.6,123.7-100.6l35.8,35.8l35.8,35.8
		c0,0-68.4,59.3-100.6,123.7c-29.7,59.4-30,90.2-30,90.2c-57.8,0-101.8-53.2-101.8-53.2S182.2,450.6,182.2,392.8z"/>
</g>
<g>
	<path class="st16" d="M182.2,392.8c0,0,8-0.1,23.7-4.1c0,0-4.7,33.7,48.5,86.9c53.2,53.2,86.9,48.5,86.9,48.5
		c-4,15.7-4.1,23.7-4.1,23.7c-57.8,0-101.8-53.2-101.8-53.2S182.2,450.6,182.2,392.8z"/>
</g>
<g class="st23">
	<path class="st24" d="M244.6,484.8c-1.1,0-2.2-0.4-3-1.1c-50.2-44.3-48.4-76.7-48.3-78.1c0.1-2,1.6-3.7,3.6-4.2
		c74.9-16.4,156-78.9,156.8-79.5c2-1.6,4.9-1.2,6.4,0.8c1.6,2,1.2,4.9-0.8,6.4c-3.3,2.6-80.9,62.3-156.7,80.4
		c1.1,8.8,7.7,34.3,45,67.2c1.9,1.7,2.1,4.6,0.4,6.5C247.2,484.3,245.9,484.8,244.6,484.8z"/>
</g>
</svg>
